<?xml version="1.0" encoding="UTF-8" standalone="no"?>
<svg width="58px" height="58px" viewBox="0 0 58 58" version="1.1" xmlns="http://www.w3.org/2000/svg" xmlns:xlink="http://www.w3.org/1999/xlink" xmlns:sketch="http://www.bohemiancoding.com/sketch/ns">
    <!-- Generator: Sketch 3.1.1 (8761) - http://www.bohemiancoding.com/sketch -->
    <title>Oval 1 + Triangle 4</title>
    <desc>Created with Sketch.</desc>
    <defs></defs>
    <g id="Page-2" stroke="none" stroke-width="1" fill="none" fill-rule="evenodd" sketch:type="MSPage">
        <g id="Oval-1-+-Triangle-4" sketch:type="MSLayerGroup" transform="translate(1.000000, 1.000000)">
            <g stroke="#4990E2" id="Oval-1" fill="#4990E2" sketch:type="MSShapeGroup">
                <circle cx="28" cy="28" r="28"></circle>
            </g>
            <path d="M13.3590578,35.8076767 L10.9894176,35.8076767 L10.9894176,20.9435696 L5.556,20.9435696 L5.556,18.8611585 L18.7924754,18.8611585 L18.7924754,20.9435696 L13.3590578,20.9435696 L13.3590578,35.8076767 Z M26.9306338,29.1295996 C26.9146766,28.6827965 26.8388808,28.2639249 26.7032441,27.8729722 C26.5676075,27.4820195 26.3681448,27.1429329 26.1048501,26.8557024 C25.8415554,26.5684718 25.5144366,26.3410843 25.1234839,26.1735332 C24.7325312,26.005982 24.2737671,25.9222077 23.7471777,25.9222077 C23.2684601,25.9222077 22.8176745,26.005982 22.3948073,26.1735332 C21.9719401,26.3410843 21.6049288,26.5684718 21.2937623,26.8557024 C20.9825959,27.1429329 20.7272837,27.4820195 20.527818,27.8729722 C20.3283523,28.2639249 20.212664,28.6827965 20.1807495,29.1295996 L26.9306338,29.1295996 Z M29.204531,30.0391585 L29.204531,30.4221306 C29.204531,30.5497886 29.1965525,30.6774448 29.1805953,30.8051028 L20.1807495,30.8051028 C20.1967067,31.2838204 20.3044166,31.734606 20.5038822,32.1574732 C20.7033479,32.5803404 20.9706279,32.9473518 21.3057302,33.2585182 C21.6408325,33.5696846 22.0277901,33.8130291 22.4666146,33.9885589 C22.905439,34.1640887 23.3721817,34.2518522 23.8668565,34.2518522 C24.6328047,34.2518522 25.2950208,34.0843036 25.8535246,33.7492013 C26.4120285,33.414099 26.8508464,33.0071951 27.1699914,32.5284775 L28.7497516,33.7970728 C28.143376,34.5949355 27.4292996,35.1813557 26.6075011,35.5563512 C25.7857025,35.9313466 24.8721635,36.1188415 23.8668565,36.1188415 C23.0051649,36.1188415 22.2073142,35.9752284 21.4732805,35.6879979 C20.7392469,35.4007673 20.1089448,34.9978527 19.5823555,34.479242 C19.0557661,33.9606312 18.6408837,33.3343184 18.3376959,32.6002848 C18.0345081,31.8662511 17.8829165,31.0524434 17.8829165,30.1588373 C17.8829165,29.2811883 18.0305189,28.4713699 18.3257281,27.7293576 C18.6209372,26.9873453 19.0318303,26.353054 19.5584197,25.8264647 C20.0850091,25.2998753 20.7073326,24.8889822 21.425409,24.593773 C22.1434854,24.2985638 22.9174006,24.1509615 23.7471777,24.1509615 C24.5769549,24.1509615 25.3309238,24.2865961 26.0091071,24.5578694 C26.6872903,24.8291427 27.2617428,25.2200895 27.7324818,25.7307216 C28.2032208,26.2413537 28.5662428,26.859688 28.8215589,27.585743 C29.0768749,28.3117981 29.204531,29.129595 29.204531,30.0391585 L29.204531,30.0391585 Z M34.8773062,29.8476724 L30.7364197,24.4621263 L33.5129679,24.4621263 L36.2895161,28.3636552 L39.09,24.4621263 L41.7229336,24.4621263 L37.6299186,29.8237366 L42.2016488,35.8076767 L39.4011649,35.8076767 L36.2416445,31.379561 L33.0342527,35.8076767 L30.3295118,35.8076767 L34.8773062,29.8476724 Z M49.8850278,26.3051799 L46.8691221,26.3051799 L46.8691221,32.2173126 C46.8691221,32.9034745 46.9967782,33.3941527 47.2520942,33.6893619 C47.5074103,33.9845711 47.9143141,34.1321734 48.472818,34.1321734 C48.6802623,34.1321734 48.9036605,34.1082379 49.1430193,34.0603662 C49.3823781,34.0124944 49.5977978,33.9406878 49.7892848,33.8449443 L49.8610921,35.6879979 C49.5898188,35.7837414 49.2906248,35.8595372 48.9635011,35.9153876 C48.6363774,35.971238 48.2972908,35.9991627 47.9462313,35.9991627 C46.8770953,35.9991627 46.0592983,35.703958 45.4928158,35.1135396 C44.9263334,34.5231212 44.6430964,33.637507 44.6430964,32.4566702 L44.6430964,26.3051799 L42.4649422,26.3051799 L42.4649422,24.4621263 L44.6430964,24.4621263 L44.6430964,21.206863 L46.8691221,21.206863 L46.8691221,24.4621263 L49.8850278,24.4621263 L49.8850278,26.3051799 Z" id="Text" fill="#FFFFFF" sketch:type="MSShapeGroup"></path>
        </g>
    </g>
</svg>